HIERARCHY
ROOT ui
{
	 OFFSET 0 0 0
	 CHANNELS 3 XPosition YPosition Z Position
	 EndSite
	 {
	 OFFSET 0 -1 0
	 }
}
ROOT li
{
	 OFFSET 0 0 0
	 CHANNELS 3 XPosition YPosition Z Position
	 EndSite
	 {
	 OFFSET 0 -1 0
	 }
}
ROOT ul
{
	 OFFSET 0 0 0
	 CHANNELS 3 XPosition YPosition Z Position
	 EndSite
	 {
	 OFFSET 0 -1 0
	 }
}
ROOT ll
{
	 OFFSET 0 0 0
	 CHANNELS 3 XPosition YPosition Z Position
	 EndSite
	 {
	 OFFSET 0 -1 0
	 }
}
ROOT tt
{
	 OFFSET 0 0 0
	 CHANNELS 3 XPosition YPosition Z Position
	 EndSite
	 {
	 OFFSET 0 -1 0
	 }
}
ROOT tb
{
	 OFFSET 0 0 0
	 CHANNELS 3 XPosition YPosition Z Position
	 EndSite
	 {
	 OFFSET 0 -1 0
	 }
}
ROOT td
{
	 OFFSET 0 0 0
	 CHANNELS 3 XPosition YPosition Z Position
	 EndSite
	 {
	 OFFSET 0 -1 0
	 }
}
ROOT v
{
	 OFFSET 0 0 0
	 CHANNELS 3 XPosition YPosition Z Position
	 EndSite
	 {
	 OFFSET 0 -1 0
	 }
}
ROOT bn
{
	 OFFSET 0 0 0
	 CHANNELS 3 XPosition YPosition Z Position
	 EndSite
	 {
	 OFFSET 0 -1 0
	 }
}
MOTION
Frames: 16
Frame Time: 0.002
-0.014312499046325684	2.1915300190448762E-4	0		0.5007730712890625	-2.35123291015625	0		-0.9654384155273438	0.14056678771972655	0		-0.7025947875976563	-2.44037158203125	0		1.8669217529296875	-0.8522376708984375	0		3.40062255859375	-0.31368572998046873	0		4.68413671875	-0.21466958618164061	0		5.92333837890625	0.4330216674804688	0		-0.28151931762695315	5.83653857421875	0		
-0.01397452163696289	-2.064500004053116E-5	0		0.5168168334960938	-2.370700927734375	0		-1.0360357666015625	0.1453332977294922	0		-0.7222679443359376	-2.4393232421875	0		1.8580267333984375	-0.8683704833984375	0		3.40095703125	-0.3139634094238281	0		4.68138818359375	-0.22091885375976564	0		5.9406796875	0.43247747802734376	0		-0.2650058898925781	5.84407666015625	0		
0.003347806930541992	-0.003510356903076172	0		0.496293701171875	-2.36066552734375	0		-0.9515776977539062	0.15091537475585937	0		-0.6778545532226562	-2.43418359375	0		1.86429638671875	-0.8747305297851562	0		3.419246826171875	-0.3195127258300781	0		4.6868916015625	-0.21130422973632812	0		5.94203759765625	0.43113247680664063	0		-0.13027976989746093	5.86294482421875	0		
0.07086248016357422	0.004287092208862304	0		0.5058486633300782	-2.347060546875	0		-0.9511806030273438	0.1506701202392578	0		-0.7213235473632813	-2.421815673828125	0		1.8804232177734375	-0.8932416381835937	0		3.4355791015625	-0.32404876708984376	0		4.6931279296875	-0.22271820068359374	0		5.92856640625	0.4399786682128906	0		-0.13076788330078126	5.86470068359375	0		
-0.008751232147216797	0.0021476271152496337	0		0.5090046081542968	-2.363374267578125	0		-0.950757568359375	0.15042134094238283	0		-0.6979034423828125	-2.419392333984375	0		1.8696329345703124	-0.9073812866210937	0		3.39987109375	-0.3328629760742188	0		4.68256005859375	-0.2219062042236328	0		5.92899462890625	0.4396153564453125	0		-0.14637481689453125	5.85566455078125	0		
-0.012355770111083984	-0.0010620720386505128	0		0.471529052734375	-2.354115478515625	0		-1.0252958984375	0.15222923278808595	0		-0.6975106201171875	-2.41964599609375	0		1.8669974365234374	-0.9116395263671875	0		3.44107275390625	-0.3497682800292969	0		4.67890869140625	-0.228201904296875	0		5.93843896484375	0.4391129455566406	0		-0.27912664794921876	5.83527734375	0		
-0.007871427059173585	0.00161558997631073	0		0.5077642211914063	-2.36589794921875	0		-1.0198085327148438	0.15491360473632812	0		-0.6950758056640625	-2.416926025390625	0		1.8580126953125	-0.9408138427734375	0		3.41152490234375	-0.3486815490722656	0		4.67243212890625	-0.22246575927734374	0		5.93477783203125	0.4307822265625	0		-0.27856423950195314	5.83501708984375	0		
-0.007434319972991943	0.0013530319929122925	0		0.4661375427246094	-2.366578369140625	0		-1.0112556762695313	0.16256016540527343	0		-0.7235635986328125	-2.407763916015625	0		1.8833128662109375	-0.9494714965820312	0		3.43786669921875	-0.35538885498046874	0		4.68386279296875	-0.22299026489257812	0		5.935451171875	0.4463829345703125	0		-0.2638544921875	5.84456201171875	0		
-0.003968672037124634	0.004052926063537598	0		0.5016699829101563	-2.35534423828125	0		-1.0108282470703125	0.16232719421386718	0		-0.6961021118164062	-2.40138671875	0		1.8616871337890626	-0.9514629516601563	0		3.4200849609375	-0.3694734497070313	0		4.68428076171875	-0.2233614044189453	0		5.939771484375	0.43792559814453125	0		-0.12997689819335936	5.86542529296875	0		
-0.006607582092285156	8.452720046043396E-4	0		0.473017822265625	-2.35519580078125	0		-1.0104210205078126	0.16210162353515625	0		-0.7076720581054687	-2.395450439453125	0		1.8757532958984375	-0.9739560546875	0		3.446377197265625	-0.3771768798828125	0		4.682380859375	-0.24469754028320312	0		5.940185546875	0.43752786254882814	0		-0.12942839050292967	5.865177734375	0		
-0.006229575157165527	6.028159856796265E-4	0		0.5051075439453125	-2.371903076171875	0		-0.935046630859375	0.1608179473876953	0		-0.7093809204101562	-2.397647216796875	0		1.855882080078125	-0.989958740234375	0		3.4136923828125	-0.3810345458984375	0		4.67688134765625	-0.235970458984375	0		5.9315751953125	0.4372677001953125	0		-0.12987826538085936	5.8669521484375	0		
-0.005880437850952149	3.690490126609802E-4	0		0.46338998413085936	-2.37255126953125	0		-1.004629638671875	0.16560238647460937	0		-0.6951474609375	-2.40206298828125	0		1.8860052490234376	-1.0046626586914063	0		3.424960205078125	-0.3865061340332031	0		4.68798193359375	-0.25347100830078123	0		5.93704833984375	0.4448200073242187	0		-0.2957848815917969	5.84008740234375	0		
-0.002519838094711304	0.0031013538837432863	0		0.518619140625	-2.375570556640625	0		-0.9952088012695313	0.1722718505859375	0		-0.723753662109375	-2.392859130859375	0		1.8670311279296874	-1.023658203125	0		3.4431962890625	-0.3920662536621094	0		4.69237939453125	-0.2478618621826172	0		5.946361328125	0.4433297119140625	0		-0.261278076171875	5.84338427734375	0		
-0.0022335410118103026	0.002885953903198242	0		0.492884765625	-2.37342626953125	0		-0.9217977294921875	0.18003477478027344	0		-0.6984507446289062	-2.388416259765625	0		1.8963206787109375	-1.0223286743164062	0		3.440531494140625	-0.3883143310546875	0		4.69777392578125	-0.24025181579589844	0		5.94978564453125	0.45194085693359376	0		-0.1285209503173828	5.866287109375	0		
-0.005021710872650146	-2.773190140724182E-4	0		0.5040773010253906	-2.374799560546875	0		-1.0056456298828125	0.17304820251464845	0		-0.7081276245117187	-2.380467041015625	0		1.875328369140625	-1.0382703857421876	0		3.419508544921875	-0.407285888671875	0		4.6957236328125	-0.2615194396972656	0		5.94182080078125	0.4357340393066406	0		-0.12913748168945313	5.86709716796875	0		
-0.004798342227935791	-4.7563299536705015E-4	0		0.48717724609375	-2.380762451171875	0		-0.9304271240234375	0.1717928009033203	0		-0.6719760131835938	-2.3831689453125	0		1.932285400390625	-1.05631396484375	0		3.439608642578125	-0.4158263854980469	0		4.6959423828125	-0.2617955627441406	0		5.938166015625	0.4434937438964844	0		-0.14395863342285156	5.85711669921875	0		
